<svg width="25" height="24" viewBox="0 0 25 24" fill="none" xmlns="http://www.w3.org/2000/svg">
<g id="pricing_usp_01">
<path id="Path" d="M19.6848 0H5.32034C3.88186 0 2.71373 1.19038 2.71373 2.65627V14.7732L1.06611 13.0942C0.821261 12.8447 0.428484 12.8447 0.183636 13.0942C-0.061212 13.3437 -0.061212 13.744 0.183636 13.9935L2.90247 16.7641C3.02489 16.8889 3.18302 16.9513 3.34626 16.9513C3.50949 16.9513 3.66762 16.8889 3.79004 16.7641L6.50888 13.9935C6.75372 13.744 6.75372 13.3437 6.50888 13.0942C6.26403 12.8447 5.87125 12.8447 5.6264 13.0942L3.97368 14.7784V2.65627C3.97368 1.89214 4.5807 1.27355 5.33054 1.27355H19.6899C20.4397 1.27355 21.0467 1.89214 21.0467 2.65627V4.42365C21.0467 4.77713 21.3273 5.06303 21.6741 5.06303C22.021 5.06303 22.3016 4.77713 22.3016 4.42365V2.65627C22.2863 1.19558 21.1181 0 19.6848 0Z" fill="black"/>
<path id="Path_2" d="M21.2203 7.24104L18.5014 10.0117C18.2566 10.2612 18.2566 10.6614 18.5014 10.911C18.6239 11.0357 18.782 11.0981 18.9452 11.0981C19.1085 11.0981 19.2666 11.0357 19.389 10.911L21.0417 9.22675V21.3437C21.0417 22.1078 20.4347 22.7264 19.6849 22.7264H5.32045C4.57061 22.7264 3.96359 22.1078 3.96359 21.3437V19.5763C3.96359 19.2228 3.68303 18.937 3.33616 18.937C2.9893 18.937 2.70874 19.2228 2.70874 19.5763V21.3437C2.70874 22.8096 3.87687 24 5.31535 24H19.6747C21.1131 24 22.2813 22.8096 22.2813 21.3437V9.22675L23.934 10.911C24.1788 11.1605 24.5716 11.1605 24.8165 10.911C25.0613 10.6614 25.0613 10.2612 24.8165 10.0117L22.0976 7.24104C21.8732 7.00193 21.4549 7.00193 21.2203 7.24104Z" fill="black"/>
<path id="Path_3" d="M12.5025 6.3678C12.1556 6.3678 11.875 6.6537 11.875 7.00717V7.98443H11.7934C10.5998 7.98443 9.62549 9.02927 9.62549 10.308C9.62549 11.5868 10.5998 12.6316 11.7934 12.6316H13.2013C13.7063 12.6316 14.1195 13.1046 14.1195 13.6816C14.1195 14.2638 13.7063 14.7317 13.2013 14.7317H10.6712C10.3243 14.7317 10.0438 15.0176 10.0438 15.371C10.0438 15.7245 10.3243 16.0104 10.6712 16.0104H11.875V17.0033C11.875 17.3568 12.1556 17.6427 12.5025 17.6427C12.8493 17.6427 13.1299 17.3568 13.1299 17.0033V16.0052H13.2217C13.2268 16.0052 13.2319 16.0052 13.237 16.0052C14.4204 15.9896 15.3743 14.95 15.3743 13.6816C15.3743 12.3977 14.4 11.3581 13.2064 11.3581H11.7985C11.2935 11.3581 10.8803 10.885 10.8803 10.308C10.8803 9.73102 11.2935 9.25799 11.7985 9.25799H14.2827C14.6296 9.25799 14.9101 8.97209 14.9101 8.61861C14.9101 8.26513 14.6296 7.97923 14.2827 7.97923H13.1299V7.00198C13.1248 6.6537 12.8493 6.3678 12.5025 6.3678Z" fill="black"/>
</g>
</svg>
