<svg width="25" height="27" viewBox="0 0 25 27" fill="none" xmlns="http://www.w3.org/2000/svg">
<g id="pricing_usp_03">
<path id="Shape" fill-rule="evenodd" clip-rule="evenodd" d="M22.2974 11.1609H22.365C23.919 11.1609 25.0001 12.8652 25 14.3019V18.4789C25 19.7821 24.0879 20.6844 22.6352 20.7846L21.9933 21.7203C20.7244 23.3894 18.7333 24.368 16.6219 24.3601C16.5271 24.9652 16.2436 25.526 15.8111 25.9641C15.1701 26.613 14.2959 26.9853 13.3788 27C11.5261 27.0001 10.019 25.5243 10.0005 23.6918C10.013 22.1295 11.1289 20.7888 12.6765 20.4766C14.4864 20.1114 16.2528 21.2667 16.6219 23.0569C18.3079 23.0648 19.8986 22.2843 20.9123 20.9517L20.9799 20.8515H20.2029L20.1875 20.8506C20.1799 20.8501 20.1723 20.8494 20.1648 20.8486C19.8123 20.8113 19.5571 20.4984 19.5948 20.1498V11.9629C19.5948 11.5618 19.8313 11.1609 20.2029 11.1609H20.9461V9.52349C20.9461 5.00201 17.2405 1.33658 12.6694 1.33658C8.09827 1.33658 4.39261 5.00201 4.39261 9.52349V11.1609H5.13583C5.50745 11.1609 5.74392 11.5619 5.74392 11.9629V20.1498C5.74528 20.1623 5.74625 20.1749 5.74683 20.1875C5.76351 20.5378 5.48992 20.8351 5.13583 20.8516H2.63593C2.62429 20.8514 2.61271 20.8512 2.60108 20.8509C1.12762 20.8139 -0.0365611 19.6024 0.000878293 18.1449V13.9679C0.000878293 12.4641 1.14947 11.1609 2.63593 11.1609H3.0413V9.52356C3.0413 4.26385 7.35187 0 12.6694 0C17.9869 0 22.2974 4.26385 22.2974 9.52356V11.1609ZM2.63593 19.5149H4.39261V12.4975H2.63593C1.8927 12.4975 1.35219 13.1993 1.35219 13.9678V18.1448C1.35161 18.1567 1.35115 18.1686 1.35083 18.1804C1.33311 18.8999 1.90848 19.4974 2.63593 19.5149ZM14.8315 25.0286C14.4571 25.4301 13.9311 25.66 13.3788 25.6635C12.2797 25.6462 11.3878 24.7787 11.3519 23.6919C11.3514 22.6031 12.2434 21.72 13.3442 21.7196C14.4451 21.7191 15.3378 22.6014 15.3382 23.6903V23.6919C15.3664 24.188 15.1825 24.6731 14.8315 25.0286ZM22.365 19.5149C22.7704 19.5149 23.6488 19.3812 23.6488 18.479V14.302C23.6488 13.5335 23.1082 12.4976 22.365 12.4976H20.9461V19.5149H22.365Z" fill="black"/>
</g>
</svg>
