<svg width="40" height="41" viewBox="0 0 40 41" fill="none" xmlns="http://www.w3.org/2000/svg">
<path d="M9.77381 9.87322H10.3461C11.2158 9.87322 11.9207 9.168 11.9207 8.29855V2.32772C11.9207 1.45827 11.2158 0.753126 10.3461 0.753126H9.77381C8.9042 0.753126 8.19922 1.45827 8.19922 2.32772V8.29855C8.19922 9.168 8.9042 9.87322 9.77381 9.87322ZM29.9711 9.83421H30.5434C31.413 9.83421 32.118 9.12906 32.118 8.25953V2.28862C32.118 1.41925 31.413 0.714111 30.5434 0.714111H29.9711C29.1014 0.714111 28.3964 1.41925 28.3964 2.28862V8.25945C28.3966 9.12906 29.1015 9.83421 29.9711 9.83421Z" fill="white"/>
<path d="M37.4402 3.95312H33.3988V8.67187C33.3988 10.246 32.1183 11.1142 30.5444 11.1142H29.9721C28.398 11.1142 27.1175 9.83355 27.1175 8.25946V3.95312H13.2016V8.29847C13.2016 9.87257 11.921 11.1532 10.3469 11.1532H9.77468C8.20066 11.1532 6.92012 9.87257 6.92012 8.29847V3.95312H2.55993C1.1484 3.95312 0 5.10153 0 6.51314V37.4466C0 38.8582 1.1484 40.0066 2.55993 40.0066H37.4402C38.8517 40.0066 40 38.8582 40 37.4466V6.51314C40.0002 5.10161 38.8517 3.95312 37.4402 3.95312ZM37.4402 37.4466H2.56001L2.55993 14.0864H37.4406L37.442 37.4465L37.4402 37.4466Z" fill="white"/>
<path d="M21.3207 21.922H25.9172C26.0047 21.922 26.0886 21.8873 26.1505 21.8254C26.2124 21.7635 26.2472 21.6796 26.2472 21.5921V17.6119C26.2472 17.5244 26.2124 17.4405 26.1505 17.3786C26.0886 17.3167 26.0047 17.282 25.9172 17.282H21.3207C21.2332 17.282 21.1493 17.3167 21.0874 17.3786C21.0255 17.4405 20.9908 17.5244 20.9908 17.6119V21.5921C20.9908 21.6796 21.0255 21.7635 21.0874 21.8254C21.1493 21.8873 21.2332 21.922 21.3207 21.922ZM28.8221 21.922H33.4186C33.5061 21.922 33.59 21.8873 33.6519 21.8254C33.7138 21.7635 33.7485 21.6796 33.7485 21.5921V17.6119C33.7485 17.5244 33.7138 17.4405 33.6519 17.3786C33.59 17.3167 33.5061 17.282 33.4186 17.282H28.8221C28.7346 17.282 28.6507 17.3167 28.5888 17.3786C28.5269 17.4405 28.4922 17.5244 28.4922 17.6119V21.5921C28.4922 21.6796 28.5269 21.7635 28.5888 21.8254C28.6507 21.8873 28.7346 21.922 28.8221 21.922ZM6.31821 28.4382H10.9146C11.0021 28.4382 11.0861 28.4034 11.1479 28.3415C11.2098 28.2797 11.2446 28.1957 11.2446 28.1082V24.128C11.2446 24.0404 11.2098 23.9565 11.1479 23.8947C11.0861 23.8328 11.0021 23.798 10.9146 23.798H6.31821C6.23071 23.798 6.14679 23.8328 6.08492 23.8947C6.02304 23.9565 5.98828 24.0404 5.98828 24.128V28.1082C5.98828 28.1957 6.02304 28.2797 6.08492 28.3415C6.14679 28.4034 6.23071 28.4382 6.31821 28.4382ZM13.8195 28.4382H18.4159C18.5034 28.4382 18.5873 28.4034 18.6492 28.3415C18.7111 28.2797 18.7459 28.1957 18.7459 28.1082V24.128C18.7459 24.0404 18.7111 23.9565 18.6492 23.8947C18.5873 23.8328 18.5034 23.798 18.4159 23.798H13.8195C13.732 23.798 13.6481 23.8328 13.5862 23.8947C13.5243 23.9565 13.4896 24.0404 13.4896 24.128V28.1082C13.4896 28.1957 13.5243 28.2797 13.5862 28.3415C13.6481 28.4034 13.732 28.4382 13.8195 28.4382ZM21.3208 28.4382H25.9172C26.0047 28.4382 26.0886 28.4034 26.1505 28.3415C26.2124 28.2797 26.2472 28.1957 26.2472 28.1082V24.128C26.2472 24.0404 26.2124 23.9565 26.1505 23.8947C26.0886 23.8328 26.0047 23.798 25.9172 23.798H21.3208C21.2333 23.798 21.1494 23.8328 21.0875 23.8947C21.0256 23.9565 20.9909 24.0404 20.9909 24.128V28.1082C20.9909 28.1957 21.0256 28.2797 21.0875 28.3415C21.1494 28.4034 21.2333 28.4382 21.3208 28.4382ZM28.8221 28.4382H33.4186C33.5061 28.4382 33.59 28.4034 33.6519 28.3415C33.7138 28.2797 33.7485 28.1957 33.7485 28.1082V24.128C33.7485 24.0404 33.7138 23.9565 33.6519 23.8947C33.59 23.8328 33.5061 23.798 33.4186 23.798H28.8221C28.7346 23.798 28.6507 23.8328 28.5888 23.8947C28.5269 23.9565 28.4922 24.0404 28.4922 24.128V28.1082C28.4922 28.1957 28.5269 28.2797 28.5888 28.3415C28.6507 28.4034 28.7346 28.4382 28.8221 28.4382ZM10.9146 30.3141H6.31829C6.23079 30.3141 6.14687 30.3489 6.085 30.4108C6.02312 30.4727 5.98836 30.5566 5.98836 30.6441V34.6244C5.98836 34.7119 6.02312 34.7958 6.085 34.8576C6.14687 34.9195 6.23079 34.9543 6.31829 34.9543H10.9147C11.0022 34.9543 11.0861 34.9195 11.148 34.8576C11.2099 34.7958 11.2446 34.7119 11.2446 34.6244V30.6441C11.2446 30.5566 11.2098 30.4727 11.1479 30.4108C11.0861 30.3489 11.0021 30.3142 10.9146 30.3141ZM18.416 30.3141H13.8196C13.7321 30.3141 13.6482 30.3489 13.5863 30.4108C13.5244 30.4727 13.4897 30.5566 13.4897 30.6441V34.6244C13.4897 34.7119 13.5244 34.7958 13.5863 34.8576C13.6482 34.9195 13.7321 34.9543 13.8196 34.9543H18.416C18.5035 34.9543 18.5874 34.9195 18.6493 34.8576C18.7112 34.7958 18.7459 34.7119 18.7459 34.6244V30.6441C18.7459 30.5566 18.7112 30.4727 18.6493 30.4108C18.5874 30.3489 18.5035 30.3141 18.416 30.3141ZM25.9174 30.3141H21.3209C21.2334 30.3141 21.1495 30.3489 21.0876 30.4108C21.0257 30.4727 20.991 30.5566 20.991 30.6441V34.6244C20.991 34.7119 21.0257 34.7958 21.0876 34.8576C21.1495 34.9195 21.2334 34.9543 21.3209 34.9543H25.9174C26.0049 34.9543 26.0888 34.9195 26.1507 34.8576C26.2126 34.7958 26.2473 34.7119 26.2473 34.6244V30.6441C26.2473 30.5566 26.2126 30.4727 26.1507 30.4108C26.0888 30.3489 26.0049 30.3141 25.9174 30.3141ZM33.4186 30.3141H28.8221C28.7346 30.3141 28.6507 30.3489 28.5888 30.4108C28.5269 30.4727 28.4922 30.5566 28.4922 30.6441V34.6244C28.4922 34.7119 28.5269 34.7958 28.5888 34.8576C28.6507 34.9195 28.7346 34.9543 28.8221 34.9543H33.4186C33.5061 34.9543 33.59 34.9195 33.6519 34.8576C33.7138 34.7958 33.7485 34.7119 33.7485 34.6244V30.6441C33.7485 30.5566 33.7138 30.4727 33.6519 30.4108C33.59 30.3489 33.5061 30.3141 33.4186 30.3141Z" fill="white"/>
</svg>
