<svg width="34" height="34" viewBox="0 0 34 34" fill="none" xmlns="http://www.w3.org/2000/svg">
<path d="M20.5751 7.5C22.0402 7.78585 23.3867 8.50239 24.4422 9.5579C25.4978 10.6134 26.2143 11.9599 26.5001 13.425M20.5751 1.5C23.6191 1.83815 26.4575 3.20126 28.6245 5.36551C30.7915 7.52976 32.1582 10.3665 32.5001 13.41M31.0001 25.38V29.88C31.0018 30.2978 30.9163 30.7113 30.7489 31.094C30.5816 31.4768 30.3361 31.8204 30.0283 32.1028C29.7204 32.3852 29.357 32.6002 28.9613 32.7341C28.5655 32.8679 28.1462 32.9176 27.7301 32.88C23.1144 32.3785 18.6806 30.8012 14.7851 28.275C11.1609 25.972 8.08815 22.8993 5.78514 19.275C3.25011 15.3618 1.67251 10.9065 1.18014 6.27C1.14266 5.8552 1.19196 5.43714 1.32489 5.04244C1.45783 4.64773 1.6715 4.28503 1.95229 3.97743C2.23309 3.66983 2.57485 3.42406 2.95583 3.25578C3.33681 3.0875 3.74865 3.00039 4.16514 3H8.66514C9.3931 2.99284 10.0988 3.25062 10.6508 3.7253C11.2027 4.19998 11.5633 4.85917 11.6651 5.58C11.8551 7.0201 12.2073 8.43409 12.7151 9.795C12.917 10.3319 12.9606 10.9154 12.841 11.4763C12.7214 12.0373 12.4434 12.5522 12.0401 12.96L10.1351 14.865C12.2705 18.6203 15.3798 21.7297 19.1351 23.865L21.0401 21.96C21.448 21.5567 21.9629 21.2788 22.5238 21.1591C23.0848 21.0395 23.6683 21.0832 24.2051 21.285C25.5661 21.7928 26.98 22.1451 28.4201 22.335C29.1488 22.4378 29.8142 22.8048 30.2899 23.3662C30.7656 23.9277 31.0184 24.6444 31.0001 25.38Z" stroke="#C14E85" stroke-width="2" stroke-linecap="round" stroke-linejoin="round"/>
</svg>
