<svg width="24" height="30" viewBox="0 0 24 30" fill="none" xmlns="http://www.w3.org/2000/svg">
<path d="M19.5264 11.3299L19.3727 11.1777L19.3442 11.154C17.1144 9.2999 16.0301 6.51832 16.3694 3.52234L16.7683 0L13.3468 1.84923C9.7107 3.81439 7.31679 7.4551 6.9139 11.5259L3.07476 10.4031L2.77502 11.0887C1.56725 13.8504 0.970424 16.5014 1.00113 18.9684C1.0347 21.6593 2.1115 24.1824 4.03316 26.0733C5.95108 27.9606 8.48856 29 11.1778 29H12.8231C18.4035 29 22.9687 24.496 22.9998 18.9593C23.0173 15.8395 21.8808 13.3435 19.5264 11.3299V11.3299Z" stroke="#1B262C" stroke-width="1.4"/>
<path d="M12.0621 27C9.85016 27 8.02803 25.1513 8.0005 22.8788C7.98921 21.9477 8.16942 20.9466 8.53691 19.8942L11.107 20.6687L11.1178 19.4338C11.1335 17.6409 12.0101 15.9853 13.4359 15C13.4316 16.8237 14.1671 18.4905 15.5123 19.6594L15.5653 19.7133L15.6158 19.7611C16.5802 20.6066 17.007 21.5695 16.9999 22.8834C16.9874 25.1535 15.1655 27 12.9385 27H12.0621Z" stroke="#1B262C" stroke-width="1.4"/>
</svg>
