<svg width="34" height="36" viewBox="0 0 34 36" fill="none" xmlns="http://www.w3.org/2000/svg">
<path d="M8.52529 14.8541C10.1289 16.0728 12.1354 16.6371 14.1391 16.4329C16.1429 16.2287 17.9943 15.2712 19.319 13.7541C23.6853 8.81971 19.9928 0.799084 13.344 0.860334C5.86904 0.867209 2.63779 10.3541 8.52529 14.8541ZM13.344 9.30408C12.8377 9.30253 12.3486 9.1198 11.9653 8.78894C11.582 8.45809 11.3298 8.00096 11.2543 7.50028C11.1787 6.99959 11.2849 6.48841 11.5536 6.05921C11.8223 5.63002 12.2357 5.31117 12.719 5.16033V4.71033C12.719 4.54457 12.7849 4.3856 12.9021 4.26839C13.0193 4.15118 13.1783 4.08533 13.344 4.08533C13.5098 4.08533 13.6688 4.15118 13.786 4.26839C13.9032 4.3856 13.969 4.54457 13.969 4.71033V5.16033C14.4024 5.29369 14.7817 5.56215 15.0516 5.92649C15.3215 6.29082 15.4678 6.73193 15.469 7.18533C15.469 7.35109 15.4032 7.51007 15.286 7.62728C15.1688 7.74449 15.0098 7.81033 14.844 7.81033C14.6783 7.81033 14.5193 7.74449 14.4021 7.62728C14.2849 7.51007 14.219 7.35109 14.219 7.18533C14.2209 7.0114 14.1711 6.84084 14.0758 6.69527C13.9806 6.54971 13.8443 6.4357 13.6842 6.36771C13.5241 6.29972 13.3474 6.2808 13.1766 6.31337C13.0057 6.34593 12.8484 6.4285 12.7245 6.55062C12.6006 6.67273 12.5158 6.82888 12.4808 6.99926C12.4458 7.16964 12.4622 7.34658 12.5279 7.50764C12.5936 7.6687 12.7056 7.80661 12.8498 7.9039C12.994 8.00118 13.1639 8.05346 13.3378 8.05408C13.8462 8.04999 14.3391 8.22924 14.7261 8.55898C15.1131 8.88872 15.3683 9.34688 15.445 9.84949C15.5217 10.3521 15.4147 10.8655 15.1436 11.2957C14.8725 11.7258 14.4556 12.0439 13.969 12.1916V12.5791C13.969 12.7448 13.9032 12.9038 13.786 13.021C13.6688 13.1382 13.5098 13.2041 13.344 13.2041C13.1783 13.2041 13.0193 13.1382 12.9021 13.021C12.7849 12.9038 12.719 12.7448 12.719 12.5791V12.1916C12.2842 12.0618 11.9029 11.7954 11.6315 11.4317C11.3602 11.068 11.2133 10.6266 11.2128 10.1728C11.2128 10.0071 11.2786 9.8481 11.3959 9.73089C11.5131 9.61368 11.672 9.54783 11.8378 9.54783C12.0036 9.54783 12.1625 9.61368 12.2797 9.73089C12.3969 9.8481 12.4628 10.0071 12.4628 10.1728C12.4634 10.3432 12.5144 10.5097 12.6092 10.6512C12.704 10.7928 12.8385 10.9033 12.9958 10.9687C13.1531 11.0342 13.3263 11.0518 13.4935 11.0193C13.6608 10.9868 13.8148 10.9056 13.9361 10.786C14.0575 10.6664 14.1408 10.5136 14.1757 10.3468C14.2106 10.18 14.1955 10.0066 14.1323 9.84841C14.069 9.69017 13.9605 9.55411 13.8203 9.45728C13.6801 9.36045 13.5144 9.30716 13.344 9.30408Z" fill="white"/>
<path d="M32.4063 21.5541H31.1375C31.1148 21.555 31.0923 21.5496 31.0725 21.5386C31.0527 21.5276 31.0362 21.5113 31.025 21.4916C30.4813 20.4541 29 17.9541 27.05 17.0853C27.0292 17.0757 27.0124 17.0594 27.0021 17.0389C26.9919 17.0185 26.989 16.9952 26.9938 16.9728C27.053 16.4075 27.1554 15.8475 27.3 15.2978C27.3621 15.0557 27.3577 14.8014 27.2874 14.5616C27.2171 14.3218 27.0834 14.1054 26.9004 13.9352C26.7174 13.7651 26.4919 13.6474 26.2477 13.5946C26.0034 13.5418 25.7494 13.5559 25.5125 13.6353C24.4566 13.9868 23.518 14.6226 22.8 15.4728C22.7825 15.4982 22.7561 15.5161 22.726 15.523C22.696 15.53 22.6644 15.5254 22.6375 15.5103C21.9602 15.0433 21.2476 14.6295 20.5063 14.2728C20.2408 14.6185 19.946 14.9405 19.625 15.2353C18.7208 16.0923 17.651 16.7555 16.4812 17.1839C15.3114 17.6124 14.0663 17.7972 12.8225 17.727C11.5787 17.6567 10.3623 17.3329 9.24822 16.7755C8.1341 16.218 7.1457 15.4387 6.34376 14.4853C4.53751 15.4716 2.55001 16.8116 1.56251 18.6853C0.543757 20.5228 -0.824993 24.1541 1.49376 27.8728C1.72957 28.2642 1.88866 28.6969 1.96251 29.1478C2.63126 32.9541 3.38751 35.1791 4.21876 35.7478C4.3203 35.8219 4.44303 35.8614 4.56876 35.8603H8.68126C8.84686 35.8598 9.00555 35.7938 9.12265 35.6767C9.23975 35.5596 9.30576 35.4009 9.30626 35.2353V33.3853C9.30626 33.3665 9.31015 33.3479 9.31768 33.3307C9.32521 33.3135 9.33622 33.2981 9.35001 33.2853C11.2269 33.5041 14.6206 34.0916 16.7938 33.3478C16.8264 33.3322 16.8637 33.3293 16.8984 33.3397C16.933 33.3501 16.9626 33.3731 16.9813 33.4041L17.675 34.9041C17.7729 35.179 17.952 35.4177 18.1887 35.5884C18.4253 35.7592 18.7083 35.854 19 35.8603H22.8813C22.9634 35.8606 23.0448 35.8446 23.1207 35.8132C23.1967 35.7819 23.2657 35.7359 23.3237 35.6778C23.3818 35.6197 23.4279 35.5507 23.4592 35.4748C23.4905 35.3988 23.5065 35.3175 23.5063 35.2353V32.2603C25.4394 31.4978 33.5581 28.6697 33.7813 24.5791V22.9228C33.7799 22.5591 33.6344 22.2108 33.3767 21.9542C33.1189 21.6976 32.7699 21.5537 32.4063 21.5541ZM26.4938 22.4228C25.2938 22.4003 25.295 20.4791 26.4938 20.4603C26.7392 20.4818 26.9677 20.5945 27.1341 20.7761C27.3006 20.9578 27.3929 21.1952 27.3929 21.4416C27.3929 21.6879 27.3006 21.9254 27.1341 22.107C26.9677 22.2887 26.7392 22.4013 26.4938 22.4228Z" fill="white"/>
</svg>
