<svg width="40" height="39" viewBox="0 0 40 39" fill="none" xmlns="http://www.w3.org/2000/svg">
<path d="M37.2339 15.4393C36.7205 15.0946 36.2567 14.681 35.8558 14.2102C35.8855 13.5547 36.0173 12.9078 36.2464 12.2929C36.6768 10.8354 37.213 9.02149 36.1797 7.60213C35.1389 6.17149 33.2374 6.12346 31.7099 6.08442C31.0673 6.11008 30.4244 6.04097 29.8019 5.87931C29.4597 5.34246 29.1984 4.75813 29.0264 4.14513C28.5167 2.69355 27.8818 0.886868 26.1813 0.334267C24.5313 -0.201996 23.0505 0.816858 21.7449 1.71282C21.2202 2.13175 20.6311 2.46293 20.0005 2.69348C19.3695 2.46318 18.7801 2.13198 18.2553 1.71282C16.9496 0.816071 15.4684 -0.199568 13.8188 0.334267C12.1188 0.886868 11.4841 2.69263 10.9738 4.14454C10.8022 4.7545 10.5437 5.33661 10.2064 5.87301C9.58196 6.03959 8.93591 6.11067 8.2902 6.08383C6.7627 6.1228 4.86128 6.17089 3.82044 7.60148C2.78709 9.02163 3.32322 10.8355 3.75378 12.2931C3.98016 12.9048 4.11307 13.5471 4.14805 14.1983C3.74886 14.6758 3.28341 15.0937 2.76583 15.4393C1.53333 16.3793 0 17.5494 0 19.3602C0 21.1709 1.53333 22.3411 2.76609 23.2811C3.27954 23.6258 3.74326 24.0393 4.14425 24.5101C4.11447 25.1657 3.98269 25.8125 3.75365 26.4274C3.32315 27.8849 2.78695 29.699 3.82031 31.1182C4.86114 32.5488 6.76257 32.5969 8.29013 32.636C8.93273 32.6103 9.5756 32.6794 10.1981 32.8411C10.5403 33.3779 10.8016 33.9623 10.9736 34.5753C11.4839 36.0271 12.1186 37.8336 13.819 38.3863C14.1203 38.4851 14.4353 38.5353 14.7524 38.5353C16.0321 38.5353 17.2007 37.732 18.2555 37.0078C18.7802 36.5887 19.3693 36.2574 19.9999 36.0268C20.6309 36.2572 21.2203 36.5884 21.7452 37.0075C23.0509 37.9043 24.5316 38.9191 26.1816 38.3861C27.8816 37.8335 28.5164 36.0277 29.0266 34.5758C29.1983 33.9658 29.4567 33.3837 29.7941 32.8473C30.4185 32.6807 31.0646 32.6097 31.7103 32.6365C33.2378 32.5975 35.1392 32.5494 36.18 31.1188C37.2134 29.6988 36.6772 27.8847 36.2467 26.4272C36.0203 25.8155 35.8874 25.1733 35.8524 24.522C36.2516 24.0445 36.7171 23.6266 37.2346 23.281C38.4666 22.3411 39.9999 21.1709 39.9999 19.3602C40 17.5494 38.4667 16.3793 37.2339 15.4393ZM27.4284 16.3719L19.0951 24.7052C18.4444 25.356 17.3894 25.3562 16.7386 24.7056L16.7382 24.7052L12.5715 20.5385C11.9124 19.896 11.899 18.8408 12.5416 18.1817C13.1841 17.5226 14.2394 17.5092 14.8984 18.1517C14.9086 18.1616 14.9185 18.1716 14.9284 18.1817L17.9166 21.17L25.0716 14.015C25.7141 13.3559 26.7693 13.3426 27.4284 13.9851C28.0875 14.6277 28.1008 15.6829 27.4583 16.342C27.4484 16.3522 27.4385 16.3621 27.4284 16.3719Z" fill="white"/>
</svg>
